<?xml version="1.0" standalone="no"?>
<!DOCTYPE svg PUBLIC "-//W3C//DTD SVG 20010904//EN"
 "http://www.w3.org/TR/2001/REC-SVG-20010904/DTD/svg10.dtd">
<svg version="1.0" xmlns="http://www.w3.org/2000/svg"
 width="512.000000pt" height="512.000000pt" viewBox="0 0 512.000000 512.000000"
 preserveAspectRatio="xMidYMid meet">

<g transform="translate(0.000000,512.000000) scale(0.100000,-0.100000)"
fill="#000000" stroke="none">
<path d="M788 5105 c-61 -17 -107 -45 -156 -99 -49 -53 -65 -84 -82 -155 -34
-146 45 -310 181 -374 l48 -22 1 -654 0 -653 34 -34 34 -34 366 0 366 0 0
-210 0 -210 -309 0 -309 0 -12 35 c-18 53 -103 140 -167 170 -169 80 -366 8
-451 -164 -23 -48 -27 -69 -27 -141 0 -72 4 -93 27 -141 85 -172 282 -244 451
-164 64 30 149 117 167 170 l12 35 309 0 309 0 0 -405 0 -405 29 -32 c29 -33
31 -33 130 -36 l101 -4 0 -299 0 -298 -301 -3 -301 -3 -29 -33 c-40 -45 -39
-84 5 -128 l34 -34 362 0 362 0 34 34 34 34 0 366 0 366 210 0 210 0 0 -309 0
-309 -35 -12 c-53 -18 -140 -103 -170 -167 -80 -169 -8 -366 164 -451 48 -23
69 -27 141 -27 72 0 93 4 141 27 172 85 244 282 164 451 -30 64 -117 149 -170
167 l-35 12 0 309 0 309 405 0 405 0 32 29 c33 29 33 31 36 130 l4 101 299 0
299 0 0 -588 0 -587 -48 -22 c-26 -12 -67 -41 -91 -65 -137 -139 -132 -352 12
-485 57 -52 88 -68 165 -84 114 -24 226 14 309 104 50 54 66 85 83 156 34 146
-45 310 -181 374 l-48 22 -1 654 0 653 -34 34 -34 34 -366 0 -366 0 0 210 0
210 309 0 309 0 12 -35 c18 -53 103 -140 167 -170 169 -80 366 -8 451 164 23
48 27 69 27 141 0 72 -4 93 -27 141 -85 172 -282 244 -451 164 -64 -30 -149
-117 -167 -170 l-12 -35 -308 0 -309 0 -3 411 -3 411 -33 29 c-31 28 -37 29
-127 29 l-95 0 0 300 0 299 301 3 301 3 29 33 c40 45 39 84 -5 128 l-34 34
-362 0 -362 0 -34 -34 -34 -34 0 -366 0 -366 -210 0 -210 0 0 309 0 309 35 12
c53 18 140 103 170 167 80 169 8 366 -164 451 -48 23 -69 27 -141 27 -72 0
-93 -4 -141 -27 -172 -85 -244 -282 -164 -451 30 -64 117 -149 170 -167 l35
-12 0 -308 0 -309 -411 -3 -411 -3 -29 -33 c-28 -31 -29 -37 -29 -127 l0 -95
-300 0 -300 0 0 588 0 587 48 22 c136 63 216 228 182 374 -17 71 -33 102 -82
155 -91 99 -213 134 -340 99z m160 -205 c94 -57 94 -183 0 -240 -117 -71 -259
71 -188 188 26 42 76 72 120 72 19 0 50 -9 68 -20z m1680 -300 c97 -59 92
-190 -9 -243 -87 -46 -199 26 -199 128 0 66 72 135 140 135 19 0 50 -9 68 -20z
m712 -2040 l0 -780 -780 0 -780 0 0 780 0 780 780 0 780 0 0 -780z m-2621 113
c85 -63 75 -187 -20 -235 -45 -23 -86 -23 -127 2 -94 57 -94 181 0 241 40 25
107 21 147 -8z m3829 7 c68 -42 91 -124 52 -188 -30 -49 -76 -74 -129 -69
-141 15 -177 195 -50 259 45 23 86 23 127 -2z m-1909 -1927 c33 -24 61 -79 61
-118 0 -40 -32 -90 -72 -115 -93 -56 -216 21 -205 129 11 107 132 165 216 104z
m1669 -293 c68 -42 91 -124 52 -188 -57 -94 -183 -94 -240 0 -71 117 71 259
188 188z"/>
<path d="M2164 3010 c-12 -4 -31 -21 -43 -36 -21 -26 -21 -33 -21 -415 l0
-389 29 -32 29 -33 396 -3 395 -3 33 30 33 29 0 402 0 402 -33 29 -32 29 -383
-1 c-210 0 -392 -4 -403 -9z m656 -450 l0 -260 -260 0 -260 0 0 260 0 260 260
0 260 0 0 -260z"/>
<path d="M4688 4565 c-61 -17 -107 -45 -156 -99 -51 -56 -67 -87 -83 -164 -24
-114 14 -226 104 -309 57 -52 88 -68 165 -84 50 -11 74 -11 124 0 77 16 108
32 165 84 90 83 128 195 104 309 -16 77 -32 108 -83 164 -91 99 -213 134 -340
99z m160 -205 c94 -57 94 -183 0 -240 -117 -71 -259 71 -188 188 26 42 76 72
120 72 19 0 50 -9 68 -20z"/>
<path d="M4148 4324 c-35 -18 -48 -43 -48 -89 0 -65 69 -110 131 -85 39 16 59
46 59 88 0 44 -14 68 -50 87 -36 19 -57 18 -92 -1z"/>
<path d="M248 1205 c-61 -17 -107 -45 -156 -99 -51 -56 -67 -87 -83 -164 -24
-114 14 -226 104 -309 57 -52 88 -68 165 -84 50 -11 74 -11 124 0 77 16 108
32 165 84 90 83 128 195 104 309 -16 77 -32 108 -83 164 -91 99 -213 134 -340
99z m160 -205 c42 -26 72 -76 72 -120 0 -44 -30 -94 -72 -120 -117 -71 -259
71 -188 188 26 42 76 72 120 72 19 0 50 -9 68 -20z"/>
<path d="M878 964 c-35 -18 -48 -43 -48 -89 0 -65 69 -110 131 -85 39 16 59
46 59 88 0 44 -14 68 -50 87 -36 19 -57 18 -92 -1z"/>
</g>
</svg>
